<svg width="960" height="600" version="1.1" xmlns="http://www.w3.org/2000/svg"><g></g><g transform="translate(480,300)scale(1.0666667222976685,1.0666667222976685)"><text text-anchor="middle" transform="translate(-9,116)rotate(-7.499999409733128)scale(1.0000000232108108,1.0000000232108108)" style="font-size: 100px; font-family: Impact; fill: rgb(82, 84, 163);">management</text><text text-anchor="middle" transform="translate(72,-50)rotate(-7.499999409733124)scale(1.0000000232108108,1.0000000232108108)" style="font-size: 74px; font-family: Impact; fill: rgb(107, 110, 207);">process</text><text text-anchor="middle" transform="translate(-190,-132)rotate(59.999999554707955)skewX(0)scale(0.9999999865388264,0.9999999865388264)" style="font-size: 60px; font-family: Impact; fill: rgb(156, 158, 222);">human</text><text text-anchor="middle" transform="translate(-189,47)rotate(-30.00000044529205)scale(0.9999999865388264,0.9999999865388264)" style="font-size: 29px; font-family: Impact; fill: rgb(99, 121, 57);">enterprise</text><text text-anchor="middle" transform="translate(153,142)rotate(15.000000120055855)skewX(1.590277362176623e-15)scale(0.9999999865150161,0.9999999865150161)" style="font-size: 60px; font-family: Impact; fill: rgb(140, 162, 82);">art</text><text text-anchor="middle" transform="translate(-93,-79)rotate(37.500000772126754)scale(0.9999999837154759,0.9999999837154759)" style="font-size: 29px; font-family: Impact; fill: rgb(206, 219, 156);">goals</text><text text-anchor="middle" transform="translate(-163,-8)rotate(15.000000120055855)skewX(1.590277362176623e-15)scale(0.9999999865150161,0.9999999865150161)" style="font-size: 68px; font-family: Impact; fill: rgb(140, 109, 49);">objectives</text><text text-anchor="middle" transform="translate(106,-135)rotate(15.000000120055855)skewX(1.590277362176623e-15)scale(0.9999999865150161,0.9999999865150161)" style="font-size: 55px; font-family: Impact; fill: rgb(231, 203, 148);">group</text><text text-anchor="middle" transform="translate(288,119)rotate(-30.00000044529205)scale(0.9999999865388264,0.9999999865388264)" style="font-size: 60px; font-family: Impact; fill: rgb(132, 60, 57);">control</text><text text-anchor="middle" transform="translate(286,-159)rotate(-7.499999409733124)scale(1.0000000232108108,1.0000000232108108)" style="font-size: 29px; font-family: Impact; fill: rgb(173, 73, 74);">planning</text><text text-anchor="middle" transform="translate(-98,-137)rotate(37.500000772126754)scale(0.9999999837154759,0.9999999837154759)" style="font-size: 48px; font-family: Impact; fill: rgb(123, 65, 115);">purpose</text><text text-anchor="middle" transform="translate(24,-126)rotate(59.999999554707955)scale(0.9999999865388264,0.9999999865388264)" style="font-size: 29px; font-family: Impact; fill: rgb(57, 59, 121);">social</text><text text-anchor="middle" transform="translate(-76,191)rotate(-7.499999409733124)scale(1.0000000232108108,1.0000000232108108)" style="font-size: 40px; font-family: Impact; fill: rgb(107, 110, 207);">resources</text><text text-anchor="middle" transform="translate(-66,-157)rotate(37.500000772126754)scale(0.9999999837154759,0.9999999837154759)" style="font-size: 29px; font-family: Impact; fill: rgb(132, 60, 57);">decisionmaking</text><text text-anchor="middle" transform="translate(56,190)rotate(37.500000772126754)scale(0.9999999837154759,0.9999999837154759)" style="font-size: 48px; font-family: Impact; fill: rgb(165, 81, 148);">effective</text><text text-anchor="middle" transform="translate(69,5)rotate(-30.000000445292045)scale(0.9999999865388264,0.9999999865388264)" style="font-size: 40px; font-family: Impact; fill: rgb(140, 109, 49);">activities</text><text text-anchor="middle" transform="translate(247,3)rotate(15.000000120055855)skewX(1.590277362176623e-15)scale(0.9999999865150161,0.9999999865150161)" style="font-size: 55px; font-family: Impact; fill: rgb(214, 97, 107);">direct</text><text text-anchor="middle" transform="translate(-306,-110)rotate(15.000000120055851)skewX(1.590277362176623e-15)scale(0.9999999865150161,0.9999999865150161)" style="font-size: 48px; font-family: Impact; fill: rgb(206, 109, 189);">organization</text><text text-anchor="middle" transform="translate(-5,215)rotate(-30.000000445292052)scale(0.9999999865388264,0.9999999865388264)" style="font-size: 29px; font-family: Impact; fill: rgb(231, 150, 156);">achieve</text><text text-anchor="middle" transform="translate(213,-177)rotate(-7.499999409733128)scale(1.0000000232108108,1.0000000232108108)" style="font-size: 29px; font-family: Impact; fill: rgb(214, 97, 107);">coordinating</text><text text-anchor="middle" transform="translate(256,-104)rotate(15.000000120055851)skewX(1.590277362176623e-15)scale(0.9999999865150161,0.9999999865150161)" style="font-size: 29px; font-family: Impact; fill: rgb(107, 110, 207);">development</text><text text-anchor="middle" transform="translate(-129,60)rotate(-7.499999409733125)skewX(0)scale(1.0000000232108108,1.0000000232108108)" style="font-size: 29px; font-family: Impact; fill: rgb(189, 158, 57);">effort</text><text text-anchor="middle" transform="translate(30,-179)rotate(-30.000000445292045)scale(0.9999999865388264,0.9999999865388264)" style="font-size: 29px; font-family: Impact; fill: rgb(231, 150, 156);">influence</text><text text-anchor="middle" transform="translate(-239,23)rotate(37.500000772126754)skewX(0)scale(0.9999999837154759,0.9999999837154759)" style="font-size: 29px; font-family: Impact; fill: rgb(123, 65, 115);">lead</text><text text-anchor="middle" transform="translate(170,-51)rotate(15.000000120055855)skewX(1.590277362176623e-15)scale(0.9999999865150161,0.9999999865150161)" style="font-size: 10px; font-family: Impact; fill: rgb(107, 110, 207);">actions</text><text text-anchor="middle" transform="translate(153,-9)rotate(15.000000120055855)skewX(1.590277362176623e-15)scale(0.9999999865150161,0.9999999865150161)" style="font-size: 10px; font-family: Impact; fill: rgb(165, 81, 148);">administrators</text><text text-anchor="middle" transform="translate(-125,22)rotate(59.99999955470795)scale(0.9999999865388264,0.9999999865388264)" style="font-size: 10px; font-family: Impact; fill: rgb(156, 158, 222);">agency</text><text text-anchor="middle" transform="translate(-172,-66)rotate(-7.499999409733125)skewX(0)scale(1.0000000232108108,1.0000000232108108)" style="font-size: 10px; font-family: Impact; fill: rgb(231, 150, 156);">aims</text><text text-anchor="middle" transform="translate(3,-15)rotate(-30.00000044529205)skewX(0)scale(0.9999999865388264,0.9999999865388264)" style="font-size: 10px; font-family: Impact; fill: rgb(206, 109, 189);">carry</text><text text-anchor="middle" transform="translate(140,3)rotate(37.500000772126754)scale(0.9999999837154759,0.9999999837154759)" style="font-size: 10px; font-family: Impact; fill: rgb(222, 158, 214);">center</text><text text-anchor="middle" transform="translate(-30,41)rotate(15.000000120055851)skewX(1.590277362176623e-15)scale(0.9999999865150161,0.9999999865150161)" style="font-size: 10px; font-family: Impact; fill: rgb(57, 59, 121);">community</text><text text-anchor="middle" transform="translate(106,121)rotate(-30.00000044529205)skewX(0)scale(0.9999999865388264,0.9999999865388264)" style="font-size: 10px; font-family: Impact; fill: rgb(82, 84, 163);">concern</text><text text-anchor="middle" transform="translate(-196,160)rotate(59.99999955470795)scale(0.9999999865388264,0.9999999865388264)" style="font-size: 10px; font-family: Impact; fill: rgb(57, 59, 121);">creation</text><text text-anchor="middle" transform="translate(58,-38)rotate(15.000000120055855)skewX(1.590277362176623e-15)scale(0.9999999865150161,0.9999999865150161)" style="font-size: 10px; font-family: Impact; fill: rgb(206, 219, 156);">data</text><text text-anchor="middle" transform="translate(58,132)rotate(59.999999554707955)skewX(0)scale(0.9999999865388264,0.9999999865388264)" style="font-size: 10px; font-family: Impact; fill: rgb(107, 110, 207);">determine</text><text text-anchor="middle" transform="translate(-72,-45)rotate(37.500000772126754)scale(0.9999999837154759,0.9999999837154759)" style="font-size: 10px; font-family: Impact; fill: rgb(206, 109, 189);">direction</text><text text-anchor="middle" transform="translate(281,43)rotate(15.000000120055855)skewX(1.590277362176623e-15)scale(0.9999999865150161,0.9999999865150161)" style="font-size: 10px; font-family: Impact; fill: rgb(214, 97, 107);">economical</text><text text-anchor="middle" transform="translate(-191,-1)rotate(15.000000120055855)skewX(1.590277362176623e-15)scale(0.9999999865150161,0.9999999865150161)" style="font-size: 10px; font-family: Impact; fill: rgb(214, 97, 107);">established</text><text text-anchor="middle" transform="translate(-253,47)rotate(-7.499999409733125)skewX(0)scale(1.0000000232108108,1.0000000232108108)" style="font-size: 10px; font-family: Impact; fill: rgb(156, 158, 222);">facilities</text><text text-anchor="middle" transform="translate(119,7)rotate(59.999999554707955)scale(0.9999999865388264,0.9999999865388264)" style="font-size: 10px; font-family: Impact; fill: rgb(99, 121, 57);">facilitate</text><text text-anchor="middle" transform="translate(33,-16)rotate(-30.000000445292045)scale(0.9999999865388264,0.9999999865388264)" style="font-size: 10px; font-family: Impact; fill: rgb(231, 150, 156);">fulfillment</text><text text-anchor="middle" transform="translate(-36,141)rotate(15.000000120055855)skewX(1.590277362176623e-15)scale(0.9999999865150161,0.9999999865150161)" style="font-size: 10px; font-family: Impact; fill: rgb(140, 162, 82);">function</text><text text-anchor="middle" transform="translate(86,143)rotate(37.500000772126754)scale(0.9999999837154759,0.9999999837154759)" style="font-size: 10px; font-family: Impact; fill: rgb(99, 121, 57);">guidance</text><text text-anchor="middle" transform="translate(-217,-131)rotate(37.500000772126754)scale(0.9999999837154759,0.9999999837154759)" style="font-size: 10px; font-family: Impact; fill: rgb(140, 162, 82);">handling</text><text text-anchor="middle" transform="translate(-235,-150)rotate(-30.000000445292052)scale(0.9999999865388264,0.9999999865388264)" style="font-size: 10px; font-family: Impact; fill: rgb(99, 121, 57);">individuals</text><text text-anchor="middle" transform="translate(-67,49)rotate(-7.499999409733128)scale(1.0000000232108108,1.0000000232108108)" style="font-size: 10px; font-family: Impact; fill: rgb(123, 65, 115);">initiation</text><text text-anchor="middle" transform="translate(-97,-114)rotate(37.500000772126754)scale(0.9999999837154759,0.9999999837154759)" style="font-size: 10px; font-family: Impact; fill: rgb(189, 158, 57);">integrating</text><text text-anchor="middle" transform="translate(278,157)rotate(15.000000120055855)skewX(1.590277362176623e-15)scale(0.9999999865150161,0.9999999865150161)" style="font-size: 10px; font-family: Impact; fill: rgb(206, 109, 189);">judgement</text><text text-anchor="middle" transform="translate(119,147)rotate(37.500000772126754)scale(0.9999999837154759,0.9999999837154759)" style="font-size: 10px; font-family: Impact; fill: rgb(206, 219, 156);">knowing</text><text text-anchor="middle" transform="translate(-74,30)rotate(15.000000120055855)skewX(1.590277362176623e-15)scale(0.9999999865150161,0.9999999865150161)" style="font-size: 10px; font-family: Impact; fill: rgb(206, 109, 189);">major</text></g></svg>